<svg width="67" height="67" viewBox="0 0 67 67" fill="none" xmlns="http://www.w3.org/2000/svg">
<path d="M29.3125 43.2709L26.5208 33.5" stroke="#222222" stroke-width="2.79167" stroke-linecap="round"/>
<path d="M23.7291 18.1459L18.1458 26.5209M43.2708 18.1459L48.8541 26.5209" stroke="#222222" stroke-width="2.79167" stroke-linecap="round"/>
<path d="M37.6875 43.2709L40.4792 33.5" stroke="#222222" stroke-width="2.79167" stroke-linecap="round"/>
<path d="M12.5625 26.5209V26.5209C14.1936 26.5209 15.6059 27.6538 15.9598 29.2461L18.9943 42.9016C19.9259 47.0936 20.3917 49.1897 21.9226 50.4178C23.4536 51.6459 25.6008 51.6459 29.8951 51.6459H37.1049C41.3992 51.6459 43.5464 51.6459 45.0774 50.4178C46.6083 49.1897 47.0741 47.0937 48.0057 42.9016L51.0402 29.2461C51.3941 27.6538 52.8064 26.5209 54.4375 26.5209V26.5209" stroke="#222222" stroke-width="2.79167" stroke-linecap="round"/>
<path d="M9.77081 26.5209H57.2291" stroke="#222222" stroke-width="2.79167" stroke-linecap="round"/>
</svg>
