<svg width="50" height="50" viewBox="0 0 76 76" fill="none" xmlns="http://www.w3.org/2000/svg">
<path d="M33.25 49.0833L30.0834 38" stroke="#222222" stroke-width="3.16667" stroke-linecap="round"/>
<path d="M26.9167 20.5833L20.5834 30.0833M49.0834 20.5833L55.4167 30.0833" stroke="#222222" stroke-width="3.16667" stroke-linecap="round"/>
<path d="M42.75 49.0833L45.9167 38" stroke="#222222" stroke-width="3.16667" stroke-linecap="round"/>
<path d="M14.25 30.0833V30.0833C16.1002 30.0833 17.7022 31.3684 18.1036 33.1746L21.5458 48.6644C22.6025 53.4196 23.1309 55.7972 24.8675 57.1902C26.6041 58.5833 29.0397 58.5833 33.9108 58.5833H42.0892C46.9603 58.5833 49.3959 58.5833 51.1325 57.1902C52.8691 55.7972 53.3975 53.4196 54.4542 48.6644L57.8964 33.1746C58.2978 31.3684 59.8998 30.0833 61.75 30.0833V30.0833" stroke="#222222" stroke-width="3.16667" stroke-linecap="round"/>
<path d="M11.0834 30.0833H64.9167" stroke="#222222" stroke-width="3.16667" stroke-linecap="round"/>
</svg>
